<svg width="32" height="32" viewBox="0 0 32 32" fill="none" xmlns="http://www.w3.org/2000/svg">
<path d="M29.7301 23.3329C24.7747 20.9341 23.9849 17.2304 23.9497 16.9557C23.9072 16.6229 23.859 16.3613 24.2261 16.0228C24.5801 15.6958 26.1507 14.7237 26.5865 14.4195C27.3068 13.9159 27.624 13.4131 27.3901 12.795C27.2266 12.3674 26.8285 12.2063 26.409 12.2063C26.2767 12.2067 26.1449 12.2215 26.0158 12.2504C25.2244 12.4221 24.4558 12.8187 24.0111 12.9258C23.9576 12.9396 23.9027 12.947 23.8475 12.9479C23.6104 12.9479 23.5205 12.8424 23.5434 12.557C23.599 11.692 23.7167 10.0037 23.5802 8.42658C23.393 6.2567 22.6931 5.18157 21.8632 4.23071C21.4618 3.76959 19.5977 1.78857 16.0003 1.78857C12.4029 1.78857 10.5413 3.76959 10.1423 4.22499C9.30998 5.17585 8.61094 6.25098 8.42535 8.42086C8.28881 9.99799 8.41145 11.6855 8.46214 12.5513C8.47849 12.8228 8.3951 12.9421 8.15799 12.9421C8.10281 12.9412 8.04793 12.9338 7.99448 12.9201C7.55053 12.813 6.78199 12.4164 5.99057 12.2447C5.86147 12.2158 5.72961 12.201 5.59731 12.2006C5.17625 12.2006 4.77972 12.3641 4.6162 12.7892C4.38237 13.4073 4.69796 13.9102 5.42071 14.4138C5.85648 14.7179 7.42707 15.6892 7.78109 16.0171C8.14737 16.3556 8.09995 16.6172 8.05743 16.95C8.02228 17.2288 7.23167 20.9324 2.27708 23.3271C1.98683 23.4678 1.49301 23.7654 2.36374 24.2461C3.73075 25.0016 4.64073 24.9206 5.34794 25.376C5.94805 25.7627 5.59322 26.5967 6.02981 26.8976C6.56615 27.2679 8.15145 26.8714 10.1995 27.5475C11.9165 28.1133 12.9597 29.7117 16.0044 29.7117C19.0491 29.7117 20.1226 28.106 21.8093 27.5475C23.8533 26.8714 25.4418 27.2679 25.979 26.8976C26.4148 26.5967 26.0607 25.7627 26.6609 25.376C27.3681 24.9206 28.2772 25.0016 29.6451 24.2461C30.5142 23.7711 30.0203 23.4735 29.7301 23.3329Z" fill="#FFE100"/>
<path d="M31.8857 23.0511C31.6633 22.4461 31.2398 22.1223 30.7574 21.8542C30.6667 21.801 30.5833 21.7585 30.5122 21.7258C30.3683 21.6514 30.2211 21.5795 30.0748 21.5034C28.5712 20.7063 27.3972 19.7006 26.5828 18.5086C26.3516 18.173 26.151 17.8173 25.9835 17.4457C25.914 17.247 25.9173 17.1342 25.9672 17.0312C26.0167 16.9518 26.0821 16.8836 26.1593 16.8309C26.4177 16.66 26.6842 16.4867 26.8649 16.3698C27.187 16.1613 27.4421 15.9961 27.6065 15.8792C28.2237 15.4475 28.6554 14.9889 28.9252 14.4762C29.1135 14.1221 29.2233 13.7315 29.2471 13.3311C29.2709 12.9307 29.2083 12.5299 29.0634 12.1559C28.6546 11.08 27.6383 10.412 26.4071 10.412C26.1473 10.4118 25.8883 10.4392 25.6344 10.4938C25.5666 10.5085 25.4987 10.524 25.4325 10.5412C25.4439 9.80535 25.4276 9.02864 25.3622 8.26419C25.13 5.57678 24.1889 4.16807 23.2078 3.0447C22.5796 2.34075 21.8395 1.74519 21.0175 1.28198C19.5287 0.431687 17.8404 0 16 0C14.1596 0 12.4794 0.431687 10.989 1.28198C10.1649 1.74533 9.4234 2.34209 8.79455 3.04797C7.81344 4.17134 6.8724 5.5825 6.6402 8.26746C6.57479 9.03191 6.55844 9.81271 6.56907 10.5445C6.50284 10.5273 6.4358 10.5117 6.36794 10.497C6.11403 10.4424 5.85503 10.415 5.59532 10.4153C4.36321 10.4153 3.34532 11.0832 2.93816 12.1592C2.79262 12.5334 2.72934 12.9345 2.75262 13.3353C2.7759 13.7361 2.88519 14.1272 3.07306 14.482C3.34368 14.9946 3.77537 15.4533 4.39265 15.8849C4.55617 15.9994 4.81207 16.1646 5.1342 16.3755C5.30835 16.4883 5.56262 16.6535 5.81198 16.8186C5.89923 16.875 5.97338 16.9495 6.02946 17.0369C6.08179 17.144 6.08342 17.2593 6.00575 17.4719C5.84055 17.8356 5.64327 18.1839 5.41627 18.5127C4.61994 19.6777 3.48022 20.6654 2.02491 21.456C1.25392 21.8648 0.452685 22.1379 0.114203 23.0577C-0.140885 23.7518 0.0259032 24.5416 0.674251 25.2071C0.912201 25.4555 1.18819 25.6644 1.49184 25.826C2.12367 26.1732 2.79551 26.442 3.49248 26.6264C3.63631 26.6635 3.77285 26.7246 3.89637 26.8071C4.13265 27.014 4.09913 27.3255 4.4139 27.7817C4.57191 28.0175 4.77269 28.2216 5.00584 28.3834C5.66645 28.8396 6.40882 28.8683 7.19534 28.8985C7.90583 28.9255 8.71115 28.9566 9.63094 29.2599C10.0119 29.3858 10.4077 29.6294 10.8663 29.914C11.9676 30.5909 13.4752 31.5173 15.9983 31.5173C18.5214 31.5173 20.0397 30.586 21.1491 29.9066C21.6045 29.627 21.9978 29.3858 22.3682 29.2632C23.288 28.959 24.0933 28.9288 24.8038 28.9018C25.5903 28.8715 26.3327 28.8429 26.9933 28.3867C27.2694 28.1942 27.4995 27.9429 27.667 27.6509C27.8934 27.2658 27.8877 26.9968 28.1003 26.8088C28.2162 26.7302 28.3444 26.6716 28.4796 26.6354C29.1861 26.4505 29.8671 26.1791 30.5073 25.8276C30.8299 25.6546 31.1203 25.4272 31.3657 25.1556L31.3739 25.1458C31.9822 24.495 32.1351 23.7281 31.8857 23.0511ZM29.6431 24.2562C28.2752 25.0117 27.3661 24.9308 26.6589 25.3862C26.0579 25.7729 26.4136 26.6068 25.977 26.9077C25.4407 27.2781 23.8554 26.8815 21.8073 27.5577C20.1182 28.1161 19.0406 29.7218 16.0024 29.7218C12.9643 29.7218 11.912 28.1194 10.1951 27.5536C8.1511 26.8774 6.56253 27.274 6.02537 26.9036C5.5896 26.6027 5.94361 25.7688 5.3435 25.3821C4.63547 24.9267 3.72631 25.0076 2.3593 24.2562C1.48857 23.7755 1.98239 23.4779 2.27264 23.3373C7.22723 20.9385 8.01784 17.2348 8.05299 16.9601C8.09551 16.6273 8.14293 16.3657 7.77665 16.0272C7.42263 15.7002 5.85204 14.7281 5.41627 14.4239C4.69516 13.9203 4.37793 13.4175 4.61176 12.7994C4.77528 12.3718 5.17426 12.2107 5.59287 12.2107C5.72517 12.2111 5.85703 12.2259 5.98613 12.2548C6.77756 12.4265 7.54609 12.8231 7.99004 12.9302C8.0435 12.9439 8.09838 12.9513 8.15356 12.9523C8.39066 12.9523 8.47405 12.8329 8.4577 12.5614C8.40701 11.6956 8.28437 10.0081 8.42091 8.43098C8.60814 6.2611 9.30718 5.18597 10.1378 4.23511C10.5368 3.77808 12.4116 1.79706 15.9967 1.79706C19.5818 1.79706 21.4615 3.7699 21.8604 4.2253C22.6919 5.17616 23.3918 6.25129 23.5774 8.42117C23.7139 9.9983 23.5962 11.6866 23.5406 12.5516C23.5218 12.837 23.6076 12.9424 23.8447 12.9424C23.8999 12.9416 23.9548 12.9341 24.0083 12.9204C24.453 12.8133 25.2216 12.4167 26.013 12.245C26.1421 12.2161 26.2739 12.2013 26.4062 12.2009C26.8273 12.2009 27.2238 12.3644 27.3873 12.7895C27.6212 13.4076 27.3056 13.9105 26.5837 14.4141C26.1479 14.7182 24.5773 15.6895 24.2233 16.0174C23.8562 16.3559 23.9044 16.6175 23.9469 16.9503C23.9821 17.2291 24.7719 20.9327 29.7273 23.3275C30.02 23.4738 30.5138 23.7714 29.6431 24.2562Z" fill="white"/>
</svg>
