<svg width="32" height="32" viewBox="0 0 32 32" fill="none" xmlns="http://www.w3.org/2000/svg">
<path d="M13.5459 25.5368C15.6678 25.5368 17.3988 23.8487 17.4772 21.7461L17.4851 2.96715H20.9156C20.8442 2.58115 20.805 2.18446 20.805 1.77777H16.1195L16.1116 20.5567C16.0331 22.6593 14.3022 24.3474 12.1803 24.3474C11.521 24.3474 10.8996 24.1826 10.353 23.8951C11.0687 24.8875 12.2317 25.5368 13.5459 25.5368Z" fill="#25F4EE"/>
<path d="M13.3425 12.9779V11.8678C12.9615 11.8157 12.5748 11.7836 12.1802 11.7836C7.4248 11.7836 3.55554 15.6528 3.55554 20.4089C3.55554 23.327 5.0132 25.9091 7.23787 27.4702C5.80232 25.9291 4.92188 23.865 4.92188 21.5975C4.92188 16.91 8.68126 13.0871 13.3432 12.9779H13.3425Z" fill="#25F4EE"/>
<path d="M27.3244 8.29708V9.34091C25.9209 9.04053 24.6844 8.28638 23.774 7.24113C24.7965 7.90824 26.0158 8.29708 27.3244 8.29708Z" fill="#25F4EE"/>
<path d="M23.7746 7.24092C22.7772 6.09577 22.1714 4.60102 22.1714 2.96643H20.9164C21.2467 4.75157 22.3063 6.28342 23.7746 7.24092Z" fill="#FE2C55"/>
<path d="M12.1803 16.4697C10.0085 16.4697 8.24114 18.237 8.24114 20.4089C8.24114 21.9215 9.09944 23.2358 10.353 23.8951C9.8857 23.2472 9.60748 22.4552 9.60748 21.5975C9.60748 19.4257 11.3748 17.6584 13.5467 17.6584C13.9519 17.6584 14.3408 17.7255 14.7089 17.8403V13.0564C14.3279 13.0043 13.9412 12.9722 13.5467 12.9722C13.5038 12.9722 13.4616 12.9736 13.4193 12.975C13.394 12.9759 13.3687 12.9767 13.3433 12.9772V16.651C12.9752 16.5361 12.5863 16.469 12.181 16.469L12.1803 16.4697Z" fill="#FE2C55"/>
<path d="M27.3242 12.9823L27.3244 9.34091C27.7646 9.43509 28.221 9.48551 28.6898 9.48551V14.1717C26.2604 14.1717 24.0086 13.3947 22.1706 12.0755V21.5976C22.1706 26.353 18.3021 30.2222 13.546 30.2222C11.0573 30.2222 8.81267 29.162 7.23728 27.4703C8.63857 28.4542 10.3424 29.0336 12.1803 29.0336C16.9358 29.0336 20.805 25.165 20.805 20.409V10.8861C22.643 12.2053 24.8947 12.9823 27.3242 12.9823Z" fill="#FE2C55"/>
<path d="M20.805 20.409V10.8861C22.643 12.2053 24.8947 12.9823 27.3242 12.9823L27.3244 9.34091C25.9209 9.04053 24.6845 8.2871 23.774 7.24113C22.3057 6.28363 21.246 4.75228 20.9156 2.96643H17.4851L17.4773 21.7453C17.3988 23.848 15.6679 25.5361 13.546 25.5361C12.2317 25.5361 11.0687 24.8868 10.3531 23.8944C9.09949 23.2344 8.24116 21.9201 8.24116 20.4083C8.24116 18.2364 10.0085 16.4691 12.1803 16.4691C12.5856 16.4691 12.9745 16.5362 13.3426 16.6511V12.9773C8.68067 13.0865 4.92129 16.9093 4.92129 21.5969C4.92129 23.8644 5.80174 25.9285 7.23728 27.4696C8.63786 28.4528 10.3424 29.0329 12.1803 29.0329C16.9358 29.0329 20.805 25.1636 20.805 20.4083L20.805 20.409Z" fill="#000008"/>
</svg>
